<svg width="83" height="73" viewBox="0 0 83 73" fill="none" xmlns="http://www.w3.org/2000/svg">
<path d="M46.4612 1H42.0046V36.5L74.8722 72H81L48.6895 37.0547L79.8858 1H74.3151L46.4612 33.1719V1Z" fill="#E0C171"/>
<path d="M23.621 72C38.6621 72 46.4612 57.2463 46.4612 50.9219V49.2578H42.0046V50.9219C42.0046 54.25 37.548 68.1172 23.621 67.5625C9.69408 67.0078 6.3516 59.2422 4.68038 56.4688C4.03949 55.4052 2.86122 55.3715 1.89499 55.9141C0.74235 56.5613 0.87529 58.0906 1.33792 59.2422C2.45206 62.0156 8.57992 72 23.621 72Z" fill="#E0C171"/>
<path d="M46.4612 1H42.0046V36.5L74.8722 72H81L48.6895 37.0547L79.8858 1H74.3151L46.4612 33.1719V1Z" stroke="#E0C171" stroke-width="1.5"/>
<path d="M23.621 72C38.6621 72 46.4612 57.2463 46.4612 50.9219V49.2578H42.0046V50.9219C42.0046 54.25 37.548 68.1172 23.621 67.5625C9.69408 67.0078 6.3516 59.2422 4.68038 56.4688C4.03949 55.4052 2.86122 55.3715 1.89499 55.9141C0.74235 56.5613 0.87529 58.0906 1.33792 59.2422C2.45206 62.0156 8.57992 72 23.621 72Z" stroke="#E0C171" stroke-width="1.5"/>
</svg>
