<svg width="13" height="14" viewBox="0 0 13 14" fill="none" xmlns="http://www.w3.org/2000/svg">
<path d="M6.48312 6.07043L8.11472 5.9609L9.8551 5.85141V0.156128L10.5077 0.265659H11.0516C11.3779 0.265659 11.813 0.265652 12.1393 0.156128V13.8467L11.4867 13.7371H10.9428C10.6165 13.7371 10.1814 13.7371 9.8551 13.8467V7.27521L8.44103 7.16568H6.37434C6.04802 7.16568 5.7217 7.16568 5.28661 7.16568C4.85152 7.16568 4.52521 7.16568 4.30766 7.16568L2.89362 7.27521V13.8467L2.24098 13.7371H1.69711H1.58833H1.26202L0.826904 13.8467V0.265659C1.15322 0.375183 1.58832 0.37519 1.91464 0.37519C2.24096 0.37519 2.67605 0.375183 3.00237 0.265659V5.9609L4.74275 6.07043H6.48312Z" fill="#FAFAFC"/>
</svg>
