<svg width="13" height="23" viewBox="0 0 13 23" fill="none" xmlns="http://www.w3.org/2000/svg">
<path d="M2.48444 12.3296V22.0773H2.04934C1.94056 22.0773 1.83179 22.0773 1.72301 22.0773H1.39671H0.961604H0.635281H0.200195V1.15815L0.852841 1.26768H1.28793H1.72301L2.37566 1.15815V3.89626H2.48444C2.91953 3.02006 3.4634 2.36292 4.11604 1.8153C4.76868 1.26768 5.8564 0.939087 7.27045 0.939087C7.70555 0.939087 8.14063 0.939094 8.57573 1.04862C9.01082 1.15814 9.33714 1.26766 9.66346 1.48671C10.3161 1.81528 10.9687 2.36292 11.5126 2.91054C12.0565 3.56769 12.3828 4.22483 12.6003 4.9915C12.8179 5.75817 12.9267 6.63435 12.9267 7.51055C12.9267 9.81056 12.3828 11.6725 11.2951 12.9868C10.2073 14.3011 8.68451 14.9582 6.83537 14.9582C4.87745 15.0677 3.4634 14.1916 2.48444 12.3296ZM2.48444 8.38676C2.48444 10.0296 2.81076 11.3439 3.57217 12.3296C4.22481 13.3154 5.31254 13.863 6.72659 13.863C7.59677 13.863 8.35818 13.6439 8.90205 13.0963C9.44592 12.5487 9.88101 11.782 10.2073 10.9058C10.4249 9.92009 10.6424 8.93438 10.6424 7.72961C10.6424 6.19627 10.3161 4.88197 9.66346 3.78673C9.01082 2.80101 8.03186 2.25339 6.72659 2.25339C5.96517 2.25339 5.31253 2.47244 4.76867 2.80101C4.2248 3.12959 3.78971 3.67719 3.46339 4.22482C3.13707 4.88196 2.91952 5.53913 2.81075 6.19627C2.48443 6.96294 2.48444 7.62009 2.48444 8.38676Z" fill="#FAFAFC"/>
</svg>
