<svg width="12" height="15" viewBox="0 0 12 15" fill="none" xmlns="http://www.w3.org/2000/svg">
<path d="M10.3645 4.86575V11.4372C10.3645 11.5467 10.3645 11.7658 10.3645 11.8753C10.3645 11.9849 10.3645 12.2039 10.3645 12.3134C10.3645 12.4229 10.4732 12.5325 10.582 12.642C10.6908 12.7515 10.9083 12.861 11.1259 12.861C11.3434 12.861 11.561 12.861 11.9961 12.7515V13.4087C11.6697 13.5182 11.3434 13.6277 11.1259 13.7372C10.9083 13.8468 10.582 13.8468 10.2557 13.8468C10.0381 13.8468 9.7118 13.8468 9.49425 13.7372C9.27671 13.6277 9.05919 13.5182 8.84164 13.4087C8.51532 13.1896 8.29777 12.7515 8.18899 12.0944L7.97144 12.3134C6.77493 13.5182 5.36089 14.0658 3.83807 14.0658C2.85911 14.0658 1.88015 13.7372 1.11874 13.0801C0.357325 12.4229 0.0310059 11.5467 0.0310059 10.561C0.0310059 9.57531 0.248559 8.80863 0.683652 8.26101C1.11874 7.71339 1.77136 7.38482 2.424 7.16577C3.07664 6.94672 4.0556 6.72766 5.25211 6.50861C6.12229 6.39909 6.77494 6.28958 7.10126 6.18005C7.42758 6.07053 7.75389 5.85148 7.97144 5.63243C8.18898 5.41338 8.29777 5.08482 8.29777 4.64672C8.29777 3.55148 7.97144 2.78479 7.42757 2.23717C6.8837 1.68955 6.01354 1.36099 5.03458 1.36099C4.38194 1.36099 3.83807 1.4705 3.40298 1.68955C2.96789 1.9086 2.53279 2.12766 2.20647 2.45623C1.88015 2.78481 1.77138 3.00384 1.6626 3.33242H1.33626V1.79908C2.85909 0.703838 4.38193 0.265747 5.90475 0.265747C7.42758 0.265747 8.51531 0.703851 9.27673 1.47052C10.0381 2.01814 10.3645 3.22288 10.3645 4.86575ZM8.18899 10.8896V6.72768L7.21004 6.94674C6.77495 7.05626 6.33985 7.05624 6.01353 7.16577C5.68721 7.27529 5.46965 7.2753 5.25211 7.2753C4.81701 7.38482 4.38194 7.49434 3.94685 7.71339C3.51175 7.93244 3.07666 8.15151 2.75034 8.5896C2.42402 9.0277 2.31525 9.46579 2.31525 10.1229C2.31525 10.9991 2.53278 11.6563 3.07664 12.0944C3.51173 12.5325 4.27314 12.7515 5.14333 12.7515C5.46965 12.7515 5.90474 12.642 6.33984 12.423C6.77493 12.2039 7.10125 11.9848 7.42757 11.6563L7.75391 11.3277L8.08021 10.9991C8.08021 11.1086 8.08022 10.9991 8.18899 10.8896Z" fill="#FAFAFC"/>
</svg>
