<svg width="12" height="14" viewBox="0 0 12 14" fill="none" xmlns="http://www.w3.org/2000/svg">
<path d="M2.56696 10.1239L4.5249 7.93337L6.70036 5.3048C7.46177 4.31908 8.22318 3.44288 8.87582 2.56669C9.20214 2.23811 9.52846 1.8 9.85478 1.25238C10.0723 1.03333 10.2899 0.595229 10.7249 0.0476074H11.8127V13.8477L11.16 13.7381H10.6162H10.1811H9.85478H9.41969V3.77143L7.57053 5.85242L5.28629 8.59053L3.11082 11.3286C2.7845 11.7667 2.56697 12.0953 2.24065 12.4239C2.02311 12.7525 1.69677 13.1905 1.37045 13.6286H0.282715V0.0476074C0.500261 0.157132 0.935354 0.157138 1.37045 0.157138C1.80554 0.157138 2.24063 0.157132 2.45818 0.0476074V10.1239H2.56696Z" fill="#FAFAFC"/>
</svg>
