<svg width="15" height="14" viewBox="0 0 15 14" fill="none" xmlns="http://www.w3.org/2000/svg">
<path d="M4.97014 7.71339L2.6859 13.8468H2.35959C2.25082 13.8468 2.14204 13.8468 2.14204 13.8468H1.81573H1.48942H1.27186H0.945557C3.66489 8.15149 5.51402 3.661 6.71052 0.265747L7.25439 0.375278H7.5807C7.68947 0.375278 7.90703 0.375278 7.90703 0.375278L8.4509 0.265747C9.10354 1.90861 9.97372 4.09909 11.0615 6.72767C12.1492 9.46578 13.1281 11.7658 14.1071 13.8468L13.5632 13.7372H13.3457C13.2369 13.7372 13.2369 13.7372 13.1281 13.7372H12.693H12.258H11.9316H11.3878C11.0614 12.7515 10.7351 11.7658 10.3 10.6706C10.0825 10.1229 9.86496 9.46578 9.64741 8.91816C9.42987 8.26101 9.21231 7.71338 8.88599 7.05623C8.34212 5.74194 7.79825 4.31814 7.14561 2.89432C6.92806 3.11337 6.49296 3.88005 5.9491 5.19434L4.97014 7.71339Z" fill="#FAFAFC"/>
</svg>
