<svg width="13" height="15" viewBox="0 0 13 15" fill="none" xmlns="http://www.w3.org/2000/svg">
<path d="M11.988 10.8905V12.4239C11.2266 12.9715 10.4652 13.4096 9.59498 13.6286C9.15989 13.7381 8.72479 13.8477 8.39847 13.9572C7.96338 14.0667 7.63705 14.0667 7.20196 14.0667C5.89668 14.0667 4.80894 13.7381 3.7212 13.1905C2.74225 12.6429 1.87208 11.8763 1.32821 10.781C0.784347 9.68577 0.458008 8.48097 0.458008 7.05716C0.458008 5.74287 0.675568 4.53811 1.21943 3.44287C1.7633 2.34762 2.41594 1.58097 3.3949 0.923822C4.37386 0.266676 5.57038 0.0476074 6.87565 0.0476074C7.63707 0.0476074 8.39848 0.157125 9.05112 0.485698C9.70376 0.704747 10.3564 1.14285 10.9002 1.69047C11.4441 2.23809 11.8792 2.89526 12.2055 3.66193C12.5319 4.4286 12.6406 5.41429 12.6406 6.50954V6.83813V7.16669C11.988 7.16669 11.009 7.16669 9.81251 7.16669C8.50723 7.16669 7.63704 7.16669 6.9844 7.16669H2.85103V7.71431C2.85103 8.48098 2.95979 9.13812 3.17734 9.79527C3.39488 10.4524 3.72123 11 4.15632 11.4381C4.59142 11.8762 5.13528 12.3143 5.78792 12.6429C6.44056 12.9715 7.09319 13.081 7.85461 13.081C9.26866 12.8619 10.5739 12.2048 11.988 10.8905ZM2.85103 5.85242H10.3564C10.3564 5.08575 10.2476 4.5381 10.1389 3.88096C10.0301 3.22381 9.81252 2.78572 9.4862 2.23809C8.94234 1.3619 8.07215 0.814291 6.76687 0.814291C5.89669 0.814291 5.24406 1.03335 4.70019 1.47144C4.15632 1.90954 3.72122 2.56667 3.3949 3.33334C3.17735 3.77143 3.06859 4.20954 2.95981 4.53811C2.95981 5.08573 2.85103 5.52384 2.85103 5.85242Z" fill="#FAFAFC"/>
</svg>
