<svg width="13" height="18" viewBox="0 0 13 18" fill="none" xmlns="http://www.w3.org/2000/svg">
<path d="M3.05681 14.1245L5.01475 11.934L7.19018 9.4149C7.95159 8.42918 8.713 7.55299 9.36564 6.67679C9.69196 6.34822 9.90953 5.91014 10.3446 5.36252C10.5622 5.14347 10.7797 4.70537 11.2148 4.15775H12.3025V17.8483L11.6499 17.7388H11.1061C10.7797 17.7388 10.3446 17.7388 10.0183 17.8483V7.88157L8.16916 9.96252L5.88492 12.7006L3.70946 15.4387C3.38314 15.8768 3.1656 16.2054 2.83928 16.534C2.62174 16.8626 2.2954 17.3007 1.96908 17.7388H0.881348V4.15775C1.20767 4.26727 1.64276 4.26728 1.96908 4.26728C2.2954 4.26728 2.73049 4.26727 3.05681 4.15775V14.1245ZM10.6709 0.652954L11.2148 1.6387C9.69197 2.51489 8.16919 2.95297 6.42882 2.95297C5.55863 2.95297 4.79721 2.84346 4.0358 2.62441C3.27438 2.40536 2.51297 2.0768 1.75155 1.6387L2.29542 0.652954C3.49192 1.41962 4.90599 1.7482 6.42882 1.7482C8.06042 1.7482 9.47443 1.41962 10.6709 0.652954Z" fill="#FAFAFC"/>
</svg>
