<svg width="14" height="15" viewBox="0 0 14 15" fill="none" xmlns="http://www.w3.org/2000/svg">
<path d="M0.22998 13.7372H2.40544V0.265747H7.8441C8.71429 0.265747 9.58449 0.375258 10.2371 0.594307C10.9985 0.813355 11.5424 1.14193 11.8687 1.68955C12.3038 2.12765 12.5214 2.78481 12.5214 3.66101C12.5214 4.42768 12.3038 5.08481 11.7599 5.63243C11.2161 6.07053 10.4547 6.3991 9.58448 6.61815C10.781 6.83719 11.6512 7.16577 12.4126 7.71339C13.0652 8.15149 13.3915 9.0277 13.3915 10.2325C13.3915 10.9991 13.174 11.6563 12.7389 12.3134C12.3038 12.861 11.6512 13.2991 10.8898 13.6277C10.5635 13.7372 10.1284 13.8468 9.69326 13.9563C9.25817 14.0658 8.82306 14.0658 8.38797 14.0658L0.22998 13.7372ZM4.68969 7.16577V12.642H7.62658C8.27922 12.642 8.82308 12.5325 9.25818 12.3134C9.69327 12.0944 10.1284 11.7658 10.3459 11.4372C10.6722 10.9991 10.781 10.561 10.781 10.0134C10.781 9.35626 10.6722 8.80864 10.4547 8.37054C10.2371 7.93244 9.91082 7.60388 9.36696 7.38483C8.93186 7.16578 8.27922 7.05624 7.62658 7.05624H4.68969V7.16577ZM4.68969 1.36099V6.07052H7.30024C9.14938 6.07052 10.0196 5.30387 10.0196 3.66101C10.0196 2.89434 9.80204 2.34671 9.25818 1.90861C8.82308 1.58004 8.17043 1.36099 7.40902 1.36099H4.68969Z" fill="#FAFAFC"/>
</svg>
