<svg width="13" height="15" viewBox="0 0 13 15" fill="none" xmlns="http://www.w3.org/2000/svg">
<path d="M11.0957 4.86575V11.4372C11.0957 11.5467 11.0957 11.7658 11.0957 11.8753C11.0957 11.9849 11.0957 12.2039 11.0957 12.3134C11.0957 12.4229 11.2044 12.5325 11.3132 12.642C11.422 12.7515 11.6395 12.861 11.8571 12.861C12.0746 12.861 12.2922 12.861 12.7273 12.7515V13.4087C12.4009 13.5182 12.0746 13.6277 11.8571 13.7372C11.6395 13.8468 11.3132 13.8468 10.9869 13.8468C10.7693 13.8468 10.443 13.8468 10.2255 13.7372C10.0079 13.6277 9.79039 13.5182 9.57284 13.4087C9.24652 13.1896 9.02897 12.7515 8.9202 12.0944L8.70264 12.3134C7.50613 13.5182 6.09209 14.0658 4.56927 14.0658C3.59031 14.0658 2.61135 13.7372 1.84994 13.0801C1.08853 12.4229 0.762207 11.5467 0.762207 10.561C0.762207 9.57531 0.97976 8.80863 1.41485 8.26101C1.84995 7.71339 2.50259 7.38482 3.15523 7.16577C3.80787 6.94672 4.7868 6.72766 5.98331 6.50861C6.85349 6.39909 7.50614 6.28958 7.83246 6.18005C8.15878 6.07053 8.48509 5.85148 8.70264 5.63243C8.92018 5.41338 9.02898 5.08482 9.02898 4.64672C9.02898 3.55148 8.70264 2.78479 8.15877 2.23717C7.6149 1.68955 6.74474 1.36099 5.76578 1.36099C5.11314 1.36099 4.56928 1.4705 4.13418 1.68955C3.69909 1.9086 3.26399 2.12766 2.93767 2.45623C2.61135 2.78481 2.50258 3.00384 2.3938 3.33242H2.0675V1.79908C3.59032 0.703838 5.11313 0.265747 6.63595 0.265747C8.15878 0.265747 9.24652 0.703851 10.0079 1.47052C10.7693 2.01814 11.0957 3.22288 11.0957 4.86575ZM8.9202 10.8896V6.72768L7.94124 6.94674C7.50615 7.05626 7.07105 7.05624 6.74473 7.16577C6.41841 7.27529 6.20085 7.2753 5.98331 7.2753C5.54821 7.38482 5.11314 7.49434 4.67805 7.71339C4.24296 7.93244 3.80786 8.15151 3.48154 8.5896C3.15522 9.0277 3.04645 9.46579 3.04645 10.1229C3.04645 10.9991 3.26398 11.6563 3.80784 12.0944C4.24294 12.5325 5.00437 12.7515 5.87456 12.7515C6.20088 12.7515 6.63595 12.642 7.07104 12.423C7.50613 12.2039 7.83245 11.9848 8.15877 11.6563L8.48511 11.3277L8.81142 10.9991C8.81142 11.1086 8.81142 10.9991 8.9202 10.8896Z" fill="#FAFAFC"/>
</svg>
