<svg width="13" height="15" viewBox="0 0 13 15" fill="none" xmlns="http://www.w3.org/2000/svg">
<path d="M12.0741 10.8905V12.4239C11.3127 12.9715 10.5513 13.4096 9.68113 13.6286C9.24604 13.7381 8.81094 13.8477 8.48462 13.9572C8.04953 14.0667 7.7232 14.0667 7.28811 14.0667C5.98283 14.0667 4.89512 13.7381 3.80738 13.1905C2.82843 12.6429 1.95823 11.8763 1.41436 10.781C0.870496 9.68577 0.544189 8.48097 0.544189 7.05716C0.544189 5.74287 0.761716 4.53811 1.30558 3.44287C1.84945 2.34762 2.50209 1.58097 3.48105 0.923822C4.46 0.266676 5.65652 0.0476074 6.9618 0.0476074C7.72321 0.0476074 8.48463 0.157125 9.13726 0.485698C9.7899 0.704747 10.4425 1.14285 10.9864 1.69047C11.5303 2.23809 11.9654 2.89526 12.2917 3.66193C12.618 4.4286 12.7268 5.41429 12.7268 6.50954V6.83813V7.16669C12.0741 7.16669 11.0952 7.16669 9.89866 7.16669C8.59338 7.16669 7.72322 7.16669 7.07058 7.16669H3.04596V7.71431C3.04596 8.48098 3.15472 9.13812 3.37227 9.79527C3.58981 10.4524 3.91616 11 4.35125 11.4381C4.78634 11.8762 5.33021 12.3143 5.98285 12.6429C6.63549 12.9715 7.28812 13.081 8.04953 13.081C9.35481 12.8619 10.6601 12.2048 12.0741 10.8905ZM2.93718 5.85242H10.4425C10.4425 5.08575 10.3338 4.5381 10.225 3.88096C10.1162 3.22381 9.89867 2.78572 9.57235 2.23809C9.02848 1.3619 8.1583 0.814291 6.85302 0.814291C5.98284 0.814291 5.3302 1.03335 4.78634 1.47144C4.24247 1.90954 3.80737 2.56667 3.48105 3.33334C3.2635 3.77143 3.15473 4.20954 3.04596 4.53811C3.04596 5.08573 2.93718 5.52384 2.93718 5.85242Z" fill="#FAFAFC"/>
</svg>
