<svg width="14" height="14" viewBox="0 0 14 14" fill="none" xmlns="http://www.w3.org/2000/svg">
<path d="M5.78887 7.16568L0.676514 0.265659L1.54669 0.37519H2.19933H2.7432L3.6134 0.265659C4.0485 1.03233 4.59234 1.90852 5.35375 3.00377C6.11516 4.09901 6.76781 4.97519 7.20291 5.52281L8.8345 3.44186L11.2275 0.156128L11.7714 0.265659H12.2065H12.6416L13.1854 0.156128L11.4451 2.01805L9.70468 3.98948C9.16081 4.64663 8.50819 5.4133 7.85555 6.2895L13.1854 13.5181V13.8467H12.6416C12.424 13.8467 12.3153 13.8467 12.3153 13.8467H11.8801H11.2275L10.4661 13.9562C10.2486 13.5181 9.92225 13.08 9.59593 12.6419C9.26961 12.2038 8.94326 11.6562 8.61694 11.1086C7.9643 10.1228 7.20289 9.02761 6.44148 8.04189L4.26602 11.1086C3.9397 11.5467 3.61338 11.9847 3.28706 12.5324C2.96074 12.9705 2.74321 13.4086 2.41689 13.8467H2.09055C1.98178 13.8467 1.87303 13.8467 1.87303 13.8467H1.54669H1.22038H1.00282H0.676514V13.5181L3.72215 9.68476L5.78887 7.16568Z" fill="#FAFAFC"/>
</svg>
