<svg width="14" height="15" viewBox="0 0 14 15" fill="none" xmlns="http://www.w3.org/2000/svg">
<path d="M0.0146484 6.94766C0.0146484 5.96194 0.232195 4.97622 0.558514 4.20955C0.884834 3.33336 1.42871 2.67621 2.08135 2.01907C2.73399 1.36192 3.49539 0.923802 4.36558 0.595229C5.23576 0.266656 6.21473 0.0476074 7.19369 0.0476074C8.49896 0.0476074 9.58669 0.3762 10.5656 0.923822C11.5446 1.47144 12.306 2.23809 12.8499 3.33334C13.3938 4.42858 13.7201 5.63334 13.7201 7.05716C13.7201 7.93335 13.6113 8.80957 13.285 9.68577C12.9587 10.562 12.5236 11.3286 11.8709 11.9858C11.2183 12.6429 10.5657 13.1905 9.58669 13.5191C8.71651 13.8477 7.73755 14.0667 6.54104 14.0667C5.34454 14.0667 4.14804 13.7381 3.16908 13.1905C2.19012 12.6429 1.31992 11.7667 0.776057 10.6715C0.232192 9.57624 0.0146484 8.37148 0.0146484 6.94766ZM7.08491 0.923822C5.99717 0.923822 5.01822 1.25239 4.36558 1.90953C3.71294 2.56668 3.16908 3.33333 2.84276 4.31905C2.51644 5.30477 2.40766 6.29051 2.40766 7.38575C2.40766 8.48099 2.51644 9.35719 2.84276 10.2334C3.16908 11.1096 3.60417 11.7667 4.25681 12.3143C4.90945 12.862 5.77962 13.1905 6.75858 13.1905C7.73754 13.1905 8.60773 12.862 9.26037 12.2048C9.91301 11.5477 10.3481 10.6715 10.6744 9.68577C11.0007 8.70005 11.1095 7.71433 11.1095 6.94766C11.1095 6.29051 11.0007 5.52382 10.892 4.86667C10.7832 4.20952 10.5657 3.5524 10.2393 3.00478C9.91302 2.45716 9.47791 2.01904 8.93405 1.58094C8.49895 1.14284 7.84632 0.923822 7.08491 0.923822Z" fill="#FAFAFC"/>
</svg>
