<svg width="14" height="23" viewBox="0 0 14 23" fill="none" xmlns="http://www.w3.org/2000/svg">
<path d="M3.01276 12.3296V22.0773H2.57767C2.4689 22.0773 2.36011 22.0773 2.25133 22.0773H1.92503H1.48994H1.1636H0.728516V1.15815L1.38116 1.26768H1.81625H2.25133L2.90398 1.15815V3.89626H3.01276C3.44785 3.02006 3.99172 2.36292 4.64436 1.8153C5.297 1.26768 6.38472 0.939087 7.79877 0.939087C8.23386 0.939087 8.66897 0.939094 9.10406 1.04862C9.53916 1.15814 9.86548 1.26766 10.1918 1.48671C10.8444 1.81528 11.4971 2.36292 12.0409 2.91054C12.5848 3.56769 12.9111 4.22483 13.1287 4.9915C13.3462 5.75817 13.455 6.63435 13.455 7.51055C13.455 9.81056 12.9111 11.6725 11.8234 12.9868C10.7357 14.3011 9.21283 14.9582 7.36369 14.9582C5.51454 15.0677 4.10049 14.1916 3.01276 12.3296ZM3.01276 8.38676C3.01276 10.0296 3.33908 11.3439 4.10049 12.3296C4.75313 13.3154 5.84085 13.863 7.25491 13.863C8.12509 13.863 8.8865 13.6439 9.43037 13.0963C9.97424 12.5487 10.4093 11.782 10.7357 10.9058C10.9532 9.92009 11.1707 8.93438 11.1707 7.72961C11.1707 6.19627 10.8444 4.88197 10.1918 3.78673C9.53916 2.80101 8.56018 2.25339 7.25491 2.25339C6.49349 2.25339 5.84087 2.47244 5.297 2.80101C4.75314 3.12959 4.31803 3.67719 3.99171 4.22482C3.66539 4.88196 3.44784 5.53913 3.33907 6.19627C3.12152 6.96294 3.01276 7.62009 3.01276 8.38676Z" fill="#FAFAFC"/>
</svg>
