<svg width="13" height="15" viewBox="0 0 13 15" fill="none" xmlns="http://www.w3.org/2000/svg">
<path d="M2.77651 0.265747V5.30387C2.77651 5.74197 2.77651 5.961 2.77651 6.07052C2.77651 6.18005 2.88529 6.18006 2.88529 6.28958C3.42915 6.28958 4.19055 5.74196 5.38706 4.64672L7.12743 2.89432L9.3029 0.484776L9.95554 0.594307H10.3906H10.8257L11.4784 0.484776V0.703838L10.717 1.36099L9.19412 2.67526C8.43271 3.33241 7.67132 3.98958 6.90991 4.75625L5.38706 6.18005L6.58357 7.60386L8.43273 9.79434L10.3906 11.9848L12.131 13.9563V14.0658H11.5871C11.3696 14.0658 11.2608 14.0658 11.2608 14.0658H10.8257H10.3906H9.95554L9.41168 14.1753C8.97659 13.6277 8.32395 12.7515 7.34499 11.6563L3.97302 7.82292C3.75547 7.49434 3.53792 7.38483 3.32037 7.38483C3.10283 7.38483 2.99407 7.7134 2.99407 8.48007V14.2848H2.55898C2.45021 14.2848 2.34141 14.2848 2.23264 14.2848H1.90634H1.58H1.25369L0.818604 14.3944V0.813369L1.47125 0.9229H1.90634H2.34142L2.77651 0.265747Z" fill="#FAFAFC"/>
</svg>
