<svg width="13" height="15" viewBox="0 0 13 15" fill="none" xmlns="http://www.w3.org/2000/svg">
<path d="M10.7617 4.86575V11.4372C10.7617 11.5467 10.7617 11.7658 10.7617 11.8753C10.7617 11.9849 10.7617 12.2039 10.7617 12.3134C10.7617 12.4229 10.8704 12.5325 10.9792 12.642C11.088 12.7515 11.3055 12.861 11.5231 12.861C11.7406 12.861 11.9582 12.861 12.3933 12.7515V13.4087C12.067 13.5182 11.7406 13.6277 11.5231 13.7372C11.1968 13.8468 10.9792 13.8468 10.6529 13.8468C10.4353 13.8468 10.109 13.8468 9.89149 13.7372C9.67394 13.6277 9.4564 13.5182 9.23886 13.4087C8.91254 13.1896 8.69498 12.7515 8.58621 12.0944L8.36867 12.3134C7.17216 13.5182 5.75811 14.0658 4.23528 14.0658C3.25633 14.0658 2.27737 13.7372 1.51595 13.0801C0.754542 12.4229 0.428223 11.5467 0.428223 10.561C0.428223 9.57531 0.645776 8.80863 1.08087 8.26101C1.51596 7.71339 2.16859 7.38482 2.82123 7.16577C3.47387 6.94672 4.45283 6.72766 5.64934 6.50861C6.51952 6.39909 7.17216 6.28958 7.49848 6.18005C7.8248 6.07053 8.15112 5.85148 8.36867 5.63243C8.58621 5.41338 8.69499 5.08482 8.69499 4.64672C8.69499 3.55148 8.36867 2.78479 7.8248 2.23717C7.28094 1.68955 6.41075 1.36099 5.4318 1.36099C4.77916 1.36099 4.23529 1.4705 3.8002 1.68955C3.36511 1.9086 2.93001 2.12766 2.60369 2.45623C2.27737 2.78481 2.16859 3.00384 2.05982 3.33242H1.7335V1.79908C3.25632 0.703838 4.77914 0.265747 6.30197 0.265747C7.82479 0.265747 8.91253 0.703851 9.67394 1.47052C10.3266 2.01814 10.7617 3.22288 10.7617 4.86575ZM8.47743 10.8896V6.72768L7.49848 6.94674C7.06339 7.05626 6.73706 7.05624 6.30197 7.16577C5.97565 7.27529 5.75811 7.2753 5.54056 7.2753C5.10547 7.38482 4.67038 7.49434 4.23528 7.71339C3.80019 7.93244 3.36509 8.15151 3.03877 8.5896C2.71245 9.0277 2.60369 9.46579 2.60369 10.1229C2.60369 10.9991 2.82123 11.6563 3.3651 12.0944C3.80019 12.5325 4.56161 12.7515 5.4318 12.7515C5.75812 12.7515 6.1932 12.642 6.62829 12.423C7.06338 12.2039 7.3897 11.9848 7.71602 11.6563L8.04235 11.3277L8.36867 10.9991C8.47744 11.1086 8.47743 10.9991 8.47743 10.8896Z" fill="#FAFAFC"/>
</svg>
