<svg width="18" height="14" viewBox="0 0 18 14" fill="none" xmlns="http://www.w3.org/2000/svg">
<path d="M0.845459 13.8467C0.954232 13.1895 1.17181 12.3133 1.28058 11.2181C1.49812 10.1228 1.60689 9.02758 1.71566 8.15139L2.15075 4.5371L2.69462 0.265659H3.45604C3.78236 0.81328 3.99989 1.47043 4.32621 2.01805C4.65253 2.56568 4.97885 3.2228 5.30517 3.87995C6.06658 5.19424 6.71922 6.50854 7.48063 7.82283C7.91572 8.47998 8.24204 9.0276 8.45958 9.46569C8.7859 10.0133 9.11224 10.4514 9.32979 10.78C10.9614 7.93237 12.8105 4.42758 14.986 0.156128H15.7474L16.0737 3.33233L16.5088 6.50852L17.0527 10.999L17.379 13.7371L16.8351 13.6276H16.6176C16.5088 13.6276 16.5088 13.6276 16.4 13.6276H16.0737H15.6386H15.3123H14.7684C14.7684 13.299 14.7684 12.7514 14.6597 12.2038C14.6597 11.6562 14.5509 11.2181 14.5509 10.999C14.5509 10.6705 14.5509 10.3419 14.5509 10.0133C14.5509 9.68474 14.4421 9.35616 14.4421 8.80854C14.4421 8.47997 14.4421 8.04187 14.3334 7.7133C14.2246 7.16568 14.2246 6.8371 14.2246 6.50852C14.1158 5.63233 14.1158 4.86569 14.007 4.20854C12.2666 7.05617 10.6351 10.1229 8.8947 13.5181H8.24206C8.02451 12.9705 7.58942 12.2038 7.15432 11.3276L5.74025 8.80854L4.32621 6.39903C3.78235 5.52283 3.34724 4.86566 3.02092 4.31804L2.69462 6.50852L2.36831 9.13713L2.15075 11.7657L2.04197 13.6276L1.71566 13.5181C1.60689 13.5181 1.60688 13.5181 1.4981 13.5181H1.60688H1.38932H1.1718L0.845459 13.8467Z" fill="#FAFAFC"/>
</svg>
