<svg width="12" height="15" viewBox="0 0 12 15" fill="none" xmlns="http://www.w3.org/2000/svg">
<path d="M2.04531 0.265747V5.30387C2.04531 5.74197 2.04531 5.961 2.04531 6.07052C2.04531 6.18005 2.15409 6.18006 2.15409 6.28958C2.69795 6.28958 3.45935 5.74196 4.65586 4.64672L6.39623 2.89432L8.5717 0.484776L9.22434 0.594307H9.65943H10.0945L10.7472 0.484776V0.703838L9.98574 1.36099L8.46292 2.67526C7.70151 3.33241 6.94009 3.98958 6.17867 4.75625L4.65586 6.18005L5.85237 7.60386L7.70153 9.79434L9.65943 11.9848L11.3998 13.9563V14.0658H10.8559C10.6384 14.0658 10.5296 14.0658 10.5296 14.0658H10.0945H9.65943H9.22434L8.68048 14.1753C8.24538 13.6277 7.59275 12.7515 6.61379 11.6563L3.24182 7.82292C3.02427 7.49434 2.80672 7.38483 2.58917 7.38483C2.37163 7.38483 2.26287 7.7134 2.26287 8.48007V14.2848H1.82775C1.71897 14.2848 1.61021 14.2848 1.50144 14.2848H1.17513H0.848795H0.522488L0.0874023 14.3944V0.813369L0.740015 0.9229H1.17513H1.61022L2.04531 0.265747Z" fill="#FAFAFC"/>
</svg>
