<svg width="65" height="86" viewBox="0 0 65 86" fill="none" xmlns="http://www.w3.org/2000/svg">
<path d="M64.0746 26.0121C64.0746 29.7359 63.4183 33.2407 62.1057 36.5264C60.7931 39.7027 58.9336 42.5503 56.6365 44.8503C53.6831 47.8074 50.2922 49.9979 46.245 51.4217C42.3072 52.8455 37.2755 53.6122 31.15 53.6122H11.789V85.2648H0.522461V0.383423H31.6969C36.838 0.383423 41.104 0.8215 44.6042 1.69769C48.1045 2.57389 51.2767 3.88819 54.0113 5.75011C57.1834 7.94059 59.6993 10.5692 61.4494 13.8549C63.1996 16.9216 64.0746 21.0835 64.0746 26.0121ZM52.3705 26.2311C52.3705 23.274 51.8236 20.7549 50.8392 18.5644C49.8547 16.3739 48.2139 14.6216 46.1356 13.3073C44.2761 12.1025 42.1978 11.3359 39.9007 10.7882C37.6037 10.2406 34.6503 10.0215 31.0406 10.0215H11.789V43.9741H29.3999C33.994 43.9741 37.6037 43.536 40.5571 42.7693C43.401 42.0026 45.6981 40.6883 47.4482 38.8264C49.1984 36.9645 50.511 35.1026 51.2767 33.0217C51.933 31.0502 52.3705 28.7502 52.3705 26.2311Z" fill="#FAFAFC"/>
</svg>
