<svg width="14" height="21" viewBox="0 0 14 21" fill="none" xmlns="http://www.w3.org/2000/svg">
<path d="M2.30901 7.69019C2.96165 7.14257 3.72305 6.81399 4.59324 6.48542C5.46342 6.15685 6.44239 6.04733 7.42134 6.04733C8.72662 6.04733 9.81435 6.37592 10.7933 6.92354C11.7723 7.47117 12.5337 8.23782 13.0775 9.33306C13.6214 10.4283 13.9477 11.6331 13.9477 13.0569C13.9477 13.9331 13.839 14.8093 13.5126 15.6855C13.1863 16.5617 12.7512 17.3283 12.0986 17.9855C11.446 18.6426 10.7933 19.1903 9.81435 19.5188C8.94417 19.8474 7.9652 20.0665 6.7687 20.0665C5.57219 20.0665 4.3757 19.7379 3.39674 19.1902C2.41778 18.6426 1.54758 17.7664 1.00372 16.6712C0.459851 15.576 0.133545 14.2617 0.133545 12.8379C0.133545 10.0997 0.351091 8.01879 0.677411 6.37592C1.00373 4.73306 1.76513 3.52826 2.63531 2.65207C3.61427 1.77587 4.91956 1.11875 6.55116 0.790175C8.18275 0.461602 10.3582 0.242554 12.9688 0.242554V0.461582V0.790175C12.9688 0.8997 12.9688 1.00921 12.9688 1.11873C12.9688 1.33778 12.9688 1.66637 13.0775 1.88542C12.4249 1.77589 11.7723 1.77588 11.0109 1.66636C10.3582 1.66636 9.48803 1.55683 8.72662 1.55683C7.42134 1.55683 6.22484 1.77589 5.24588 2.32351C4.26692 2.76161 3.50551 3.52827 3.07042 4.40446C2.63532 5.49971 2.30901 6.48543 2.30901 7.69019ZM7.42134 6.92354C6.33361 6.92354 5.35465 7.25211 4.70202 7.90926C4.04938 8.5664 3.5055 9.33305 3.17918 10.3188C2.85286 11.3045 2.74409 12.2902 2.74409 13.3855C2.74409 14.4807 2.85286 15.3569 3.17918 16.2331C3.5055 17.1093 3.9406 17.7664 4.59324 18.3141C5.24587 18.8617 6.11606 19.1902 7.09502 19.1902C8.07398 19.1902 8.94417 18.8617 9.59681 18.2045C10.2494 17.5474 10.7933 16.6712 11.0109 15.6855C11.3372 14.6998 11.4459 13.7141 11.4459 12.9474C11.4459 12.2902 11.3372 11.5235 11.2284 10.8664C11.1196 10.2092 10.9021 9.55212 10.5758 9.0045C10.2494 8.45688 9.81435 8.01876 9.27049 7.58066C8.72662 7.14257 8.18276 6.92354 7.42134 6.92354Z" fill="#FAFAFC"/>
</svg>
