<svg width="17" height="14" viewBox="0 0 17 14" fill="none" xmlns="http://www.w3.org/2000/svg">
<path d="M0.423584 13.7371H2.59905V0.156128C2.92537 0.265652 3.25169 0.265659 3.79556 0.265659C4.23065 0.265659 4.55697 0.265652 4.88329 0.156128V5.85141H8.25527C9.12545 5.85141 9.88688 5.96092 10.6483 6.2895C11.4097 6.61807 11.9536 7.05615 12.2799 7.60377C12.715 8.15139 12.9325 8.91806 12.9325 9.79425C12.9325 10.5609 12.715 11.2181 12.1711 11.7657C11.736 12.3133 11.0834 12.8609 10.322 13.1895C9.56054 13.5181 8.79912 13.7371 8.03771 13.7371H0.423584ZM4.88329 7.05615V12.5324L5.97102 12.6419H6.94998C7.49384 12.6419 8.03771 12.5324 8.58157 12.3133C9.12544 12.0943 9.56054 11.7657 9.88686 11.3276C10.2132 10.8895 10.4307 10.4514 10.4307 9.79425C10.4307 8.80854 10.1044 8.1514 9.56056 7.7133C9.01669 7.2752 8.25528 7.05615 7.38509 7.05615H4.88329ZM16.522 0.265659V13.8467H16.0869C15.9782 13.8467 15.8694 13.8467 15.7606 13.8467H15.4343H14.9992H14.6729H14.2378V0.265659C14.5641 0.375183 14.8904 0.37519 15.3255 0.37519C15.8694 0.265666 16.1957 0.265659 16.522 0.265659Z" fill="#FAFAFC"/>
</svg>
