<svg width="19" height="15" viewBox="0 0 19 15" fill="none" xmlns="http://www.w3.org/2000/svg">
<path d="M11.6154 0.923822C10.5276 0.923822 9.54866 1.25239 8.89602 1.90953C8.24338 2.56668 7.69952 3.33333 7.37321 4.31905C7.04689 5.30477 6.93812 6.29051 6.93812 7.38575C6.93812 8.48099 7.04689 9.35719 7.37321 10.2334C7.69952 11.1096 8.13464 11.7667 8.78728 12.3143C9.43992 12.862 10.3101 13.1905 11.289 13.1905C12.268 13.1905 13.1382 12.862 13.7908 12.2048C14.4435 11.5477 14.8786 10.6715 15.2049 9.68577C15.5312 8.70005 15.64 7.71433 15.64 6.94766C15.64 6.29051 15.5312 5.52382 15.4224 4.86667C15.3136 4.20952 15.0961 3.5524 14.7698 3.00478C14.4435 2.45716 14.0084 2.01904 13.4645 1.58094C13.0294 1.14284 12.3768 0.923822 11.6154 0.923822ZM11.1803 14.0667C10.2013 14.0667 9.33113 13.9572 8.56972 13.6286C7.8083 13.3 7.0469 12.862 6.50303 12.2048C5.85039 11.5477 5.41528 10.8905 5.08896 10.0143C4.98019 9.57623 4.76266 9.13812 4.76266 8.70002C4.65388 8.26192 4.65388 7.71432 4.65388 7.27622H2.9135V13.8477C2.80472 13.8477 2.69596 13.8477 2.58719 13.8477C2.47842 13.8477 2.36966 13.8477 2.26089 13.8477C2.15211 13.8477 2.04333 13.8477 2.04333 13.8477H1.71702H1.39068H1.17315C1.06438 13.8477 0.955587 13.8477 0.846814 13.8477H0.520508V0.266669H0.738034H0.955594H1.2819H1.60824C1.71701 0.266669 1.82577 0.266669 1.93455 0.266669C2.04332 0.266669 2.15211 0.266669 2.26089 0.266669H2.47841H2.80475V5.96191H4.65388C4.76265 4.75715 5.19775 3.77144 5.85039 2.89525C6.50303 2.01905 7.3732 1.36191 8.35216 0.814291C9.33112 0.266669 10.5276 0.0476074 11.7241 0.0476074C13.0294 0.0476074 14.1171 0.3762 15.0961 0.923822C16.0751 1.47144 16.8365 2.23809 17.3804 3.33334C17.9242 4.42858 18.2505 5.63334 18.2505 7.05716C18.2505 7.93335 18.1418 8.80957 17.8154 9.68577C17.4891 10.562 17.054 11.3286 16.4014 11.9858C15.7488 12.6429 15.0961 13.1905 14.1172 13.5191C13.247 13.8477 12.268 14.0667 11.1803 14.0667Z" fill="#FAFAFC"/>
</svg>
