<svg width="13" height="14" viewBox="0 0 13 14" fill="none" xmlns="http://www.w3.org/2000/svg">
<path d="M6.62497 6.07052H8.25656L9.99694 5.96099V0.265747L10.6496 0.375278H11.1935C11.5198 0.375278 11.9549 0.375271 12.2812 0.265747V13.8468L11.6285 13.7372H11.0847C10.7584 13.7372 10.3233 13.7372 9.99694 13.8468V7.2753L8.58287 7.16577H6.51619C6.18987 7.16577 5.86355 7.16577 5.42845 7.16577C4.99336 7.16577 4.66705 7.16577 4.4495 7.16577L3.03546 7.2753V13.8468L2.38282 13.7372H1.83895H1.51261H1.18631L0.751221 13.8468V0.265747C1.07754 0.375271 1.51263 0.375278 1.83895 0.375278C2.16527 0.375278 2.60037 0.375271 2.92668 0.265747V5.96099L4.66706 6.07052H6.62497Z" fill="#FAFAFC"/>
</svg>
